<?xml version="1.0" encoding="utf-8"?>
<!-- Generator: Adobe Illustrator 24.0.2, SVG Export Plug-In . SVG Version: 6.00 Build 0)  -->
<svg version="1.1" id="Layer_1" xmlns="http://www.w3.org/2000/svg" xmlns:xlink="http://www.w3.org/1999/xlink" x="0px" y="0px"
	 viewBox="0 0 900 900" style="enable-background:new 0 0 900 900;" xml:space="preserve">
<style type="text/css">
	.st0{fill:none;stroke:#000000;stroke-width:7;stroke-miterlimit:10;}
	.st1{fill:#FFFFFF;stroke:#4D4D4D;stroke-width:7;stroke-miterlimit:10;}
	.st2{fill:none;stroke:#4D4D4D;stroke-width:7;stroke-miterlimit:10;}
	.st3{fill:#4D4D4D;}
	.st4{fill:#4E4E4E;}
</style>
<path class="st0" d="M450,903.77c0,0,0-141.05-85.12-138.62S111.96,711.65,99.8,626.53s0-590.96,0-590.96s2.43-31.62-29.18-31.62"/>
<path class="st1" d="M450,903.77c0,0,0-141.05-85.12-138.62S111.96,711.65,99.8,626.53s0-590.96,0-590.96s2.43-31.62-29.18-31.62
	h758.77c-31.62,0-29.18,31.62-29.18,31.62s12.16,505.85,0,590.96c-12.16,85.12-179.96,141.05-265.08,138.62S450,903.77,450,903.77"
	/>
<line class="st2" x1="97.06" y1="171.83" x2="802.94" y2="171.83"/>
<path class="st2" d="M248.15,44.09h-44.16c-0.63,0-1.5-0.04-2.5-0.26c-0.72-0.15-3.62-0.84-6.1-3.3c-3.37-3.36-3.54-7.65-3.56-8.6v0
	c0-6.72,5.44-12.16,12.16-12.16h44.16c6.72,0,12.16,5.44,12.16,12.16v0C260.31,38.65,254.86,44.09,248.15,44.09z"/>
<polygon class="st2" points="198.89,44.09 252.17,44.09 225.53,119.11 "/>
<path class="st2" d="M227.98,149.55L154.6,88.67h19.83c0,0,5.98,14.23,17.4,12.6c0,0-0.54,13.59,11.96,13.05
	c0,0,1.09,11.96,14.13,11.42c0,0,0.54,7.61,7.61,7.61"/>
<path class="st2" d="M223.61,149.55L297,88.67h-19.83c0,0-5.98,14.23-17.4,12.6c0,0,0.54,13.59-11.96,13.05
	c0,0-1.09,11.96-14.13,11.42c0,0-0.54,7.61-7.61,7.61"/>
<g>
	<g>
		<path class="st3" d="M225.94,143.85c2.69,0,5.52-1.17,7.42-3.08c1.82-1.82,3.19-4.81,3.08-7.42c-0.25-5.69-4.61-10.5-10.5-10.5
			c-2.69,0-5.52,1.17-7.42,3.08c-1.82,1.82-3.19,4.81-3.08,7.42C215.69,139.04,220.05,143.85,225.94,143.85L225.94,143.85z"/>
	</g>
</g>
<path class="st2" d="M704.79,41.03h-44.16c-0.63,0-1.5-0.04-2.5-0.26c-0.72-0.15-3.62-0.84-6.1-3.3c-3.37-3.36-3.54-7.65-3.56-8.6v0
	c0-6.72,5.44-12.16,12.16-12.16h44.16c6.72,0,12.16,5.44,12.16,12.16v0C716.95,35.59,711.5,41.03,704.79,41.03z"/>
<polygon class="st2" points="655.53,41.03 708.81,41.03 682.17,116.05 "/>
<path class="st2" d="M684.62,146.49l-73.39-60.88h19.83c0,0,5.98,14.23,17.4,12.6c0,0-0.54,13.59,11.96,13.05
	c0,0,1.09,11.96,14.13,11.42c0,0,0.54,7.61,7.61,7.61"/>
<path class="st2" d="M680.25,146.49l73.39-60.88H733.8c0,0-5.98,14.23-17.4,12.6c0,0,0.54,13.59-11.96,13.05
	c0,0-1.09,11.96-14.13,11.42c0,0-0.54,7.61-7.61,7.61"/>
<g>
	<g>
		<path class="st3" d="M682.58,140.78c2.69,0,5.52-1.17,7.42-3.08c1.82-1.82,3.19-4.81,3.08-7.42c-0.25-5.69-4.61-10.5-10.5-10.5
			c-2.69,0-5.52,1.17-7.42,3.08c-1.82,1.82-3.19,4.81-3.08,7.42C672.33,135.97,676.69,140.78,682.58,140.78L682.58,140.78z"/>
	</g>
</g>
<circle class="st2" cx="557.97" cy="81.92" r="15.63"/>
<path class="st2" d="M546.42,92.8"/>
<polyline class="st2" points="546.42,92.48 478.9,92.48 478.9,70.72 546.42,70.72 "/>
<path class="st2" d="M478.9,71.04V38.22c0,0-15.72,6.31-16.47,32.82s0,53.94,0,53.94s16.47-10.41,16.47-32.18"/>
<polyline class="st2" points="462.43,71.04 326.4,81.6 462.43,92.8 "/>
<path class="st2" d="M646.73,369.55c10.43-2.16,25.25-15.88,25.25-15.88"/>
<path class="st2" d="M627.71,383.53c0,0,11.1-15.41,21.55-14.46"/>
<path class="st2" d="M638.22,366.16c-13.97,7.64-10.51,17.36-10.51,17.36"/>
<path class="st2" d="M615.26,372.27c0,0,16.32-10.23,22.96-6.11"/>
<path class="st2" d="M630.86,357.62c-12.51,7.07-15.6,14.65-15.6,14.65"/>
<path class="st2" d="M609.82,362.65c0,0,7.01-8.28,21.03-5.02"/>
<path class="st2" d="M609.82,362.65c0,0,6.91-10.25,18.07-14.78c0,0,20.9-6.61,25.03-12.58c0,0,24.78-3.21,12.85-22.49
	c-11.93-19.28,0.92-38.1,0.92-38.1l4.59-8.26c0,0-5.05,1.38-21.57,10.56s-28.92-16.52-28.92-16.52s-7.34-16.98-5.97-26.62
	c1.38-9.64-12.39-20.65-12.39-20.65s9.18-2.75,15.61,10.56c4.13-5.97-4.59-21.57-4.59-21.57s6.88,3.21,12.85,15.15
	c3.67-12.85-3.67-19.74-3.67-19.74s9.18,6.88,12.85,17.44c3.67,10.56-4.59,25.7-4.59,25.7s-3.67,25.7,15.55,22.95
	c19.22-2.75,28.05-15.61,28.05-15.61s-15.61,3.21-24.22,0.92c-8.62-2.29,0-7.34,0-7.34s15.5,0,21.47-4.59c5.97-4.59,0-9.18,0-9.18
	s-18.82,5.97-20.65,2.75c-1.84-3.21,0-12.39,0-12.39s27.08,1.84,21.11-4.13c-5.97-5.97,0-7.26,0-7.26s4.87-2.25,9.69,1
	c4.83,3.25,14.59-5.76,14.59-5.76s0.75,3.17-2.25,6.47c-3,3.3,8.26-1.21,8.26-1.21s-3.25,16.77-11.02,20.53s13.77,8.51,13.77,8.51
	s-10.01,2.75-14.52,0s-0.75,1.22-0.75,1.22v54.35c0,0,15.73,18.65,30.42,0c14.69-18.65,6.43-40.79,6.43-40.79
	s-1.84-32.02,28.46-38.44s1.84-25.24,1.84-25.24"/>
<path class="st2" d="M712.21,370.29c5.8-6.37,10.79-24.96,10.79-24.96"/>
<path class="st2" d="M707.99,395.52c0,0-1.57-18.86,4.22-25.23"/>
<path class="st2" d="M705.19,375.63c-3.56,15.08,2.8,19.89,2.8,19.89"/>
<path class="st2" d="M696.31,395.67c0,0,3.54-18.58,8.88-20.04"/>
<path class="st2" d="M697.4,374.33c-3.08,13.67-1.09,21.34-1.09,21.34"/>
<path class="st2" d="M689,392.26c0,0-0.31-10.83,8.4-17.94"/>
<path class="st2" d="M689,392.26c0,0-3.35-14.24-0.87-26.21c0,0,10.98-23.61,4.88-36.92l-13.78-9.4c11.29,21-8.15,35.08-8.15,35.08"
	/>
<g>
	<g>
		<path class="st4" d="M696.67,400.05c3.66,0,7.17-3.22,7-7c-0.17-3.79-3.08-7-7-7c-3.66,0-7.17,3.22-7,7
			C689.84,396.84,692.75,400.05,696.67,400.05L696.67,400.05z"/>
	</g>
</g>
<g>
	<g>
		<path class="st4" d="M696.6,399.74c3.66,0,7.17-3.22,7-7c-0.17-3.79-3.08-7-7-7c-3.66,0-7.17,3.22-7,7
			C689.77,396.53,692.67,399.74,696.6,399.74L696.6,399.74z"/>
	</g>
</g>
<g>
	<g>
		<path class="st4" d="M689.02,396.99c3.66,0,7.17-3.22,7-7c-0.17-3.79-3.08-7-7-7c-3.66,0-7.17,3.22-7,7
			C682.19,393.78,685.1,396.99,689.02,396.99L689.02,396.99z"/>
	</g>
</g>
<g>
	<g>
		<path class="st4" d="M697.21,381.61c3.66,0,7.17-3.22,7-7c-0.17-3.79-3.08-7-7-7c-3.66,0-7.17,3.22-7,7
			C690.38,378.41,693.28,381.61,697.21,381.61L697.21,381.61z"/>
	</g>
</g>
<g>
	<g>
		<path class="st4" d="M705.85,382.53c3.66,0,7.17-3.22,7-7c-0.17-3.79-3.08-7-7-7c-3.66,0-7.17,3.22-7,7
			C699.02,379.32,701.93,382.53,705.85,382.53L705.85,382.53z"/>
	</g>
</g>
<g>
	<g>
		<path class="st4" d="M706.92,400.74c3.66,0,7.17-3.22,7-7c-0.17-3.79-3.08-7-7-7c-3.66,0-7.17,3.22-7,7
			C700.09,397.53,703,400.74,706.92,400.74L706.92,400.74z"/>
	</g>
</g>
<g>
	<g>
		<path class="st3" d="M667.58,234.26c-1.73-1.23-3.89-1.86-6-1.93c-2.1-0.07-4.01,0.76-6.05,1.05c0.31-0.04,0.62-0.08,0.93-0.13
			c-0.8,0.09-1.59,0.1-2.39,0c0.31,0.04,0.62,0.08,0.93,0.13c-1.64-0.23-3.16-0.92-4.79-1.21c-1.34-0.24-2.49-0.28-3.82-0.06
			c-0.8,0.13-1.57,0.37-2.37,0.48c0.31-0.04,0.62-0.08,0.93-0.13c-0.29,0.03-0.57,0.04-0.87,0.02c0.31,0.04,0.62,0.08,0.93,0.13
			c-0.17-0.02-0.33-0.08-0.49-0.11c0.54,0.25,0.69,0.3,0.45,0.17c-0.23-0.14-0.11-0.04,0.36,0.3c-0.04-0.04-0.08-0.08-0.13-0.11
			c-0.24-0.26-0.16-0.15,0.23,0.32c-0.32-0.48,0.25,0.83,0.13,0.26c0.04,0.31,0.08,0.62,0.13,0.93c-0.02-0.1-0.02-0.2-0.01-0.3
			c-0.04,0.31-0.08,0.62-0.13,0.93c0.07-0.34,0-0.21-0.21,0.39c0.41-0.86,0.61-1.75,0.35-2.7c-0.22-0.81-0.85-1.69-1.61-2.09
			c-1.56-0.83-3.94-0.51-4.79,1.26c-0.74,1.54-0.79,3.02-0.06,4.57c0.46,0.98,1.39,1.87,2.34,2.37c1.21,0.63,2.49,0.8,3.83,0.62
			c0.96-0.13,1.88-0.39,2.83-0.54c-0.31,0.04-0.62,0.08-0.93,0.13c0.52-0.06,1.01-0.06,1.53,0c-0.31-0.04-0.62-0.08-0.93-0.13
			c0.96,0.13,1.88,0.42,2.8,0.69c1.22,0.37,2.43,0.63,3.71,0.74c1.25,0.11,2.55-0.04,3.77-0.31c1.01-0.22,1.98-0.55,3-0.72
			c-0.31,0.04-0.62,0.08-0.93,0.13c0.67-0.09,1.34-0.09,2.01-0.01c-0.31-0.04-0.62-0.08-0.93-0.13c0.3,0.04,0.6,0.1,0.89,0.17
			c0.2,0.05,0.72,0.12,0.87,0.27c-0.06-0.06-0.72-0.34-0.28-0.12c0.12,0.06,0.24,0.12,0.36,0.18c0.3,0.16,0.58,0.34,0.85,0.54
			c0.7,0.5,1.9,0.57,2.7,0.35c0.81-0.22,1.69-0.85,2.09-1.61C669.79,237.25,669.18,235.39,667.58,234.26L667.58,234.26z"/>
	</g>
</g>
<g>
	<g>
		<path class="st3" d="M643.58,232.57c-0.93,0-1.76,0.25-2.57,0.69c-0.39,0.21-0.74,0.51-1.07,0.8c-0.32,0.28-0.59,0.69-0.83,1.01
			c-0.09,0.12-0.17,0.24-0.23,0.37c-0.16,0.33-0.31,0.68-0.43,1.02c-0.03,0.07-0.05,0.15-0.07,0.22c-0.21,0.91-0.23,1.79,0.01,2.7
			c0.11,0.46,0.32,0.85,0.63,1.19c0.25,0.38,0.57,0.68,0.98,0.9c0.4,0.26,0.84,0.39,1.3,0.42c0.47,0.1,0.93,0.08,1.4-0.06
			c0.28-0.12,0.56-0.24,0.84-0.35c0.53-0.31,0.94-0.73,1.26-1.26c0.12-0.28,0.24-0.56,0.35-0.84c0.17-0.62,0.17-1.24,0-1.86
			c-0.02-0.07-0.03-0.14-0.04-0.22c0.04,0.31,0.08,0.62,0.13,0.93c-0.02-0.15-0.02-0.29,0-0.43c-0.04,0.31-0.08,0.62-0.13,0.93
			c0.02-0.18,0.07-0.35,0.14-0.51c-0.12,0.28-0.24,0.56-0.35,0.84c0.07-0.16,0.16-0.32,0.27-0.46c-0.18,0.24-0.36,0.47-0.55,0.71
			c0.11-0.14,0.24-0.27,0.38-0.38c-0.24,0.18-0.47,0.36-0.71,0.55c0.13-0.1,0.28-0.18,0.43-0.25c-0.28,0.12-0.56,0.24-0.84,0.35
			c0.14-0.05,0.27-0.09,0.42-0.11c-0.31,0.04-0.62,0.08-0.93,0.13c0.07-0.01,0.15-0.01,0.22-0.01c0.48,0.02,0.93-0.08,1.35-0.3
			c0.43-0.14,0.81-0.38,1.13-0.72c0.34-0.32,0.58-0.69,0.72-1.13c0.22-0.42,0.32-0.87,0.3-1.35c-0.04-0.31-0.08-0.62-0.13-0.93
			c-0.17-0.59-0.47-1.11-0.9-1.54c-0.24-0.18-0.47-0.36-0.71-0.55C644.8,232.73,644.22,232.57,643.58,232.57L643.58,232.57z"/>
	</g>
</g>
<path class="st2" d="M628.14,295.44c0,0,25.96,0.19,20.65-18.49"/>
<path class="st2" d="M602.06,294.35c9.97-5.06,26.09,1.1,26.09,1.1"/>
<path class="st2" d="M586.5,309.42c0,0,5.59-10.02,15.56-15.08"/>
<path class="st2" d="M605.56,303.13c-13.23-1.91-19.06,6.29-19.06,6.29"/>
<path class="st2" d="M592.28,317.9c0,0,2.26-7.25,13.28-14.77"/>
<path class="st2" d="M613.04,310.46c-6.47-3.29-20.76,7.44-20.76,7.44"/>
<path class="st2" d="M604.67,327.34c0,0-3.96-8.73,8.37-16.88"/>
<path class="st2" d="M623.48,312.29c-9.74-0.07-18.8,15.05-18.8,15.05"/>
<path class="st2" d="M649.06,302.8c0,0-15.84,9.56-25.58,9.49"/>
<path class="st2" d="M661.25,272.26c11.32,15.14-12.49,30.87-12.49,30.87"/>
<path class="st2" d="M761.58,214.11c29.01-10.82-1.91-25.24-1.91-25.24"/>
<path class="st2" d="M739.96,250.46c0,0-7.39-25.52,21.63-36.34"/>
<path class="st2" d="M739.96,250.46c0,0,12.08,24.72-3.44,46.53c0,0-13.46,12.92-26.51,12.84c-13.05-0.08-2.21,7.71-2.21,7.71
	c16.72,5.01,14.67,29.71,14.67,29.71"/>
<g>
	<g>
		<path class="st3" d="M688.72,394.48c1.83,0,3.58-1.61,3.5-3.5c-0.08-1.9-1.54-3.5-3.5-3.5c-1.83,0-3.58,1.61-3.5,3.5
			C685.3,392.88,686.75,394.48,688.72,394.48L688.72,394.48z"/>
	</g>
</g>
<g>
	<g>
		<path class="st4" d="M670.97,361.57c3.66,0,7.17-3.22,7-7c-0.17-3.79-3.08-7-7-7c-3.66,0-7.17,3.22-7,7
			C664.14,358.36,667.05,361.57,670.97,361.57L670.97,361.57z"/>
	</g>
</g>
<g>
	<g>
		<path class="st4" d="M605.49,310.16c3.66,0,7.17-3.22,7-7c-0.17-3.79-3.08-7-7-7c-3.66,0-7.17,3.22-7,7
			C598.66,306.96,601.56,310.16,605.49,310.16L605.49,310.16z"/>
	</g>
</g>
<g>
	<g>
		<path class="st4" d="M592.64,324.55c3.66,0,7.17-3.22,7-7c-0.17-3.79-3.08-7-7-7c-3.66,0-7.17,3.22-7,7
			C585.81,321.34,588.71,324.55,592.64,324.55L592.64,324.55z"/>
	</g>
</g>
<g>
	<g>
		<path class="st4" d="M604.88,334.64c3.66,0,7.17-3.22,7-7c-0.17-3.79-3.08-7-7-7c-3.66,0-7.17,3.22-7,7
			C598.05,331.44,600.95,334.64,604.88,334.64L604.88,334.64z"/>
	</g>
</g>
<g>
	<g>
		<path class="st4" d="M587.13,316.28c3.66,0,7.17-3.22,7-7c-0.17-3.79-3.08-7-7-7c-3.66,0-7.17,3.22-7,7
			C580.3,313.08,583.21,316.28,587.13,316.28L587.13,316.28z"/>
	</g>
</g>
<path class="st2" d="M428.91,677.5c10.43-2.16,25.25-15.88,25.25-15.88"/>
<path class="st2" d="M409.9,691.48c0,0,11.1-15.41,21.55-14.46"/>
<path class="st2" d="M420.4,674.11c-13.97,7.64-10.51,17.36-10.51,17.36"/>
<path class="st2" d="M397.44,680.23c0,0,16.31-10.23,22.96-6.11"/>
<path class="st2" d="M413.04,665.57c-12.51,7.07-15.6,14.65-15.6,14.65"/>
<path class="st2" d="M392.01,670.6c0,0,7.01-8.28,21.03-5.02"/>
<path class="st2" d="M392.01,670.6c0,0,6.91-10.25,18.07-14.78c0,0,20.9-6.61,25.03-12.58c0,0,24.78-3.21,12.85-22.49
	s0.92-38.1,0.92-38.1l4.59-8.26c0,0-5.05,1.38-21.57,10.56c-16.52,9.18-28.92-16.52-28.92-16.52s-7.34-16.98-5.97-26.62
	c1.38-9.64-12.39-20.65-12.39-20.65s9.18-2.75,15.61,10.56c4.13-5.97-4.59-21.57-4.59-21.57s6.88,3.21,12.85,15.15
	c3.67-12.85-3.67-19.74-3.67-19.74s9.18,6.88,12.85,17.44c3.67,10.56-4.59,25.7-4.59,25.7s-3.67,25.7,15.55,22.95
	c19.22-2.75,28.05-15.61,28.05-15.61s-15.61,3.21-24.22,0.92c-8.62-2.29,0-7.34,0-7.34s15.5,0,21.47-4.59c5.97-4.59,0-9.18,0-9.18
	s-18.82,5.97-20.65,2.75c-1.84-3.21,0-12.39,0-12.39s27.08,1.84,21.11-4.13c-5.97-5.97,0-7.26,0-7.26s4.87-2.25,9.69,1
	c4.83,3.25,14.59-5.76,14.59-5.76s0.75,3.17-2.25,6.47c-3,3.3,8.26-1.21,8.26-1.21s-3.25,16.77-11.02,20.53
	c-7.76,3.76,13.77,8.51,13.77,8.51s-10.01,2.75-14.52,0c-4.51-2.75-0.75,1.22-0.75,1.22v54.35c0,0,15.73,18.65,30.42,0
	c14.69-18.65,6.43-40.79,6.43-40.79s-1.84-32.02,28.46-38.44c30.29-6.43,1.84-25.24,1.84-25.24"/>
<path class="st2" d="M494.39,678.24c5.8-6.37,10.79-24.96,10.79-24.96"/>
<path class="st2" d="M490.17,703.47c0,0-1.57-18.86,4.22-25.23"/>
<path class="st2" d="M487.37,683.58c-3.56,15.08,2.8,19.89,2.8,19.89"/>
<path class="st2" d="M478.5,703.62c0,0,3.54-18.58,8.88-20.04"/>
<path class="st2" d="M479.58,682.28c-3.08,13.67-1.09,21.34-1.09,21.34"/>
<path class="st2" d="M471.18,700.22c0,0-0.31-10.83,8.4-17.94"/>
<path class="st2" d="M471.18,700.22c0,0-3.35-14.24-0.87-26.21c0,0,10.98-23.61,4.88-36.92l-13.78-9.4
	c11.29,21-8.15,35.08-8.15,35.08"/>
<g>
	<g>
		<path class="st4" d="M478.85,708c3.66,0,7.17-3.22,7-7c-0.17-3.79-3.08-7-7-7c-3.66,0-7.17,3.22-7,7
			C472.02,704.79,474.93,708,478.85,708L478.85,708z"/>
	</g>
</g>
<g>
	<g>
		<path class="st4" d="M478.78,707.69c3.66,0,7.17-3.22,7-7c-0.17-3.79-3.08-7-7-7c-3.66,0-7.17,3.22-7,7
			C471.95,704.49,474.85,707.69,478.78,707.69L478.78,707.69z"/>
	</g>
</g>
<g>
	<g>
		<path class="st4" d="M471.2,704.94c3.66,0,7.17-3.22,7-7c-0.17-3.79-3.08-7-7-7c-3.66,0-7.17,3.22-7,7
			C464.37,701.73,467.28,704.94,471.2,704.94L471.2,704.94z"/>
	</g>
</g>
<g>
	<g>
		<path class="st4" d="M479.39,689.56c3.66,0,7.17-3.22,7-7c-0.17-3.79-3.08-7-7-7c-3.66,0-7.17,3.22-7,7
			C472.56,686.36,475.47,689.56,479.39,689.56L479.39,689.56z"/>
	</g>
</g>
<g>
	<g>
		<path class="st4" d="M488.03,690.48c3.66,0,7.17-3.22,7-7c-0.17-3.79-3.08-7-7-7c-3.66,0-7.17,3.22-7,7
			C481.2,687.27,484.11,690.48,488.03,690.48L488.03,690.48z"/>
	</g>
</g>
<g>
	<g>
		<path class="st4" d="M489.11,708.69c3.66,0,7.17-3.22,7-7c-0.17-3.79-3.08-7-7-7c-3.66,0-7.17,3.22-7,7
			C482.27,705.48,485.18,708.69,489.11,708.69L489.11,708.69z"/>
	</g>
</g>
<g>
	<g>
		<path class="st3" d="M449.76,542.21c-1.73-1.23-3.89-1.86-6-1.93c-2.1-0.07-4.01,0.76-6.05,1.05c0.31-0.04,0.62-0.08,0.93-0.13
			c-0.8,0.09-1.59,0.1-2.39,0c0.31,0.04,0.62,0.08,0.93,0.13c-1.64-0.23-3.16-0.92-4.79-1.21c-1.34-0.24-2.49-0.28-3.82-0.06
			c-0.8,0.13-1.57,0.37-2.37,0.48c0.31-0.04,0.62-0.08,0.93-0.13c-0.29,0.03-0.57,0.04-0.87,0.02c0.31,0.04,0.62,0.08,0.93,0.13
			c-0.17-0.02-0.33-0.08-0.49-0.11c0.54,0.25,0.69,0.3,0.45,0.17c-0.23-0.14-0.11-0.04,0.36,0.3c-0.04-0.04-0.08-0.08-0.13-0.11
			c-0.24-0.26-0.16-0.15,0.23,0.32c-0.32-0.48,0.25,0.83,0.13,0.26c0.04,0.31,0.08,0.62,0.13,0.93c-0.02-0.1-0.02-0.2-0.01-0.3
			c-0.04,0.31-0.08,0.62-0.13,0.93c0.07-0.34,0-0.21-0.21,0.39c0.41-0.86,0.61-1.75,0.35-2.7c-0.22-0.81-0.85-1.69-1.61-2.09
			c-1.56-0.83-3.94-0.51-4.79,1.26c-0.74,1.54-0.79,3.02-0.06,4.57c0.46,0.98,1.39,1.87,2.34,2.37c1.21,0.63,2.49,0.8,3.83,0.62
			c0.96-0.13,1.88-0.39,2.83-0.54c-0.31,0.04-0.62,0.08-0.93,0.13c0.52-0.06,1.01-0.06,1.53,0c-0.31-0.04-0.62-0.08-0.93-0.13
			c0.96,0.13,1.88,0.42,2.8,0.7c1.22,0.37,2.43,0.63,3.71,0.74c1.25,0.11,2.55-0.04,3.77-0.31c1.01-0.22,1.98-0.55,3-0.72
			c-0.31,0.04-0.62,0.08-0.93,0.13c0.67-0.09,1.34-0.09,2.01-0.01c-0.31-0.04-0.62-0.08-0.93-0.13c0.3,0.04,0.6,0.1,0.89,0.17
			c0.2,0.05,0.72,0.12,0.87,0.27c-0.06-0.06-0.72-0.34-0.28-0.12c0.12,0.06,0.24,0.12,0.36,0.18c0.3,0.16,0.58,0.34,0.85,0.54
			c0.7,0.5,1.9,0.57,2.7,0.35c0.81-0.22,1.69-0.85,2.09-1.61C451.97,545.2,451.36,543.34,449.76,542.21L449.76,542.21z"/>
	</g>
</g>
<g>
	<g>
		<path class="st3" d="M425.77,540.52c-0.93,0-1.76,0.25-2.57,0.69c-0.39,0.21-0.74,0.51-1.07,0.8c-0.32,0.28-0.59,0.69-0.83,1.01
			c-0.09,0.12-0.17,0.24-0.23,0.37c-0.16,0.33-0.31,0.68-0.43,1.02c-0.03,0.07-0.05,0.15-0.07,0.22c-0.21,0.91-0.23,1.79,0.01,2.7
			c0.11,0.46,0.32,0.85,0.63,1.19c0.25,0.38,0.57,0.68,0.98,0.9c0.4,0.26,0.84,0.39,1.3,0.42c0.47,0.1,0.93,0.08,1.4-0.06
			c0.28-0.12,0.56-0.24,0.84-0.35c0.53-0.31,0.94-0.73,1.26-1.26c0.12-0.28,0.24-0.56,0.35-0.84c0.17-0.62,0.17-1.24,0-1.86
			c-0.02-0.07-0.03-0.14-0.04-0.22c0.04,0.31,0.08,0.62,0.13,0.93c-0.02-0.15-0.02-0.29,0-0.43c-0.04,0.31-0.08,0.62-0.13,0.93
			c0.02-0.18,0.07-0.35,0.14-0.51c-0.12,0.28-0.24,0.56-0.35,0.84c0.07-0.16,0.16-0.32,0.27-0.46c-0.18,0.24-0.36,0.47-0.55,0.71
			c0.11-0.14,0.24-0.27,0.38-0.38c-0.24,0.18-0.47,0.36-0.71,0.55c0.13-0.1,0.28-0.18,0.43-0.25c-0.28,0.12-0.56,0.24-0.84,0.35
			c0.14-0.05,0.27-0.09,0.42-0.11c-0.31,0.04-0.62,0.08-0.93,0.13c0.07-0.01,0.15-0.01,0.22-0.01c0.48,0.02,0.93-0.08,1.35-0.3
			c0.43-0.14,0.81-0.38,1.13-0.72c0.34-0.32,0.58-0.69,0.72-1.13c0.22-0.42,0.32-0.87,0.3-1.35c-0.04-0.31-0.08-0.62-0.13-0.93
			c-0.17-0.59-0.47-1.11-0.9-1.54c-0.24-0.18-0.47-0.36-0.71-0.55C426.99,540.68,426.4,540.52,425.77,540.52L425.77,540.52z"/>
	</g>
</g>
<path class="st2" d="M410.33,603.39c0,0,25.96,0.19,20.65-18.49"/>
<path class="st2" d="M384.24,602.3c9.97-5.06,26.09,1.1,26.09,1.1"/>
<path class="st2" d="M368.68,617.37c0,0,5.59-10.02,15.56-15.08"/>
<path class="st2" d="M387.75,611.09c-13.23-1.91-19.06,6.29-19.06,6.29"/>
<path class="st2" d="M374.46,625.85c0,0,2.26-7.25,13.28-14.77"/>
<path class="st2" d="M395.22,618.41c-6.47-3.29-20.76,7.44-20.76,7.44"/>
<path class="st2" d="M386.86,635.29c0,0-3.96-8.73,8.37-16.88"/>
<path class="st2" d="M405.66,620.24c-9.74-0.07-18.8,15.05-18.8,15.05"/>
<path class="st2" d="M431.24,610.75c0,0-15.84,9.56-25.58,9.49"/>
<path class="st2" d="M443.43,580.21c11.32,15.14-12.49,30.87-12.49,30.87"/>
<path class="st2" d="M543.77,522.07c29.01-10.82-1.91-25.24-1.91-25.24"/>
<path class="st2" d="M522.14,558.41c0,0-7.39-25.52,21.63-36.34"/>
<path class="st2" d="M522.14,558.41c0,0,12.08,24.72-3.44,46.53c0,0-13.46,12.92-26.51,12.84c-13.05-0.08-2.21,7.71-2.21,7.71
	c16.72,5.01,14.67,29.71,14.67,29.71"/>
<g>
	<g>
		<path class="st3" d="M470.9,702.43c1.83,0,3.58-1.61,3.5-3.5c-0.08-1.9-1.54-3.5-3.5-3.5c-1.83,0-3.58,1.61-3.5,3.5
			C467.48,700.83,468.94,702.43,470.9,702.43L470.9,702.43z"/>
	</g>
</g>
<g>
	<g>
		<path class="st4" d="M453.15,669.52c3.66,0,7.17-3.22,7-7c-0.17-3.79-3.08-7-7-7c-3.66,0-7.17,3.22-7,7
			C446.32,666.31,449.23,669.52,453.15,669.52L453.15,669.52z"/>
	</g>
</g>
<g>
	<g>
		<path class="st4" d="M387.67,618.12c3.66,0,7.17-3.22,7-7c-0.17-3.79-3.08-7-7-7c-3.66,0-7.17,3.22-7,7
			C380.84,614.91,383.75,618.12,387.67,618.12L387.67,618.12z"/>
	</g>
</g>
<g>
	<g>
		<path class="st4" d="M374.82,632.5c3.66,0,7.17-3.22,7-7c-0.17-3.79-3.08-7-7-7c-3.66,0-7.17,3.22-7,7
			C367.99,629.29,370.89,632.5,374.82,632.5L374.82,632.5z"/>
	</g>
</g>
<g>
	<g>
		<path class="st4" d="M387.06,642.59c3.66,0,7.17-3.22,7-7c-0.17-3.79-3.08-7-7-7c-3.66,0-7.17,3.22-7,7
			C380.23,639.39,383.13,642.59,387.06,642.59L387.06,642.59z"/>
	</g>
</g>
<g>
	<g>
		<path class="st4" d="M369.31,624.24c3.66,0,7.17-3.22,7-7c-0.17-3.79-3.08-7-7-7c-3.66,0-7.17,3.22-7,7
			C362.48,621.03,365.39,624.24,369.31,624.24L369.31,624.24z"/>
	</g>
</g>
<path class="st2" d="M192.42,376.82c10.43-2.16,25.25-15.88,25.25-15.88"/>
<path class="st2" d="M173.4,390.8c0,0,11.1-15.41,21.55-14.46"/>
<path class="st2" d="M183.91,373.43c-13.97,7.64-10.51,17.36-10.51,17.36"/>
<path class="st2" d="M160.95,379.54c0,0,16.31-10.23,22.96-6.11"/>
<path class="st2" d="M176.55,364.89c-12.51,7.07-15.6,14.65-15.6,14.65"/>
<path class="st2" d="M155.51,369.92c0,0,7.01-8.28,21.03-5.02"/>
<path class="st2" d="M155.51,369.92c0,0,6.91-10.25,18.07-14.78c0,0,20.9-6.61,25.03-12.58c0,0,24.78-3.21,12.85-22.49
	s0.92-38.1,0.92-38.1l4.59-8.26c0,0-5.05,1.38-21.57,10.56c-16.52,9.18-28.92-16.52-28.92-16.52s-7.34-16.98-5.97-26.62
	c1.38-9.64-12.39-20.65-12.39-20.65s9.18-2.75,15.61,10.56c4.13-5.97-4.59-21.57-4.59-21.57s6.88,3.21,12.85,15.15
	c3.67-12.85-3.67-19.74-3.67-19.74s9.18,6.88,12.85,17.44s-4.59,25.7-4.59,25.7s-3.67,25.7,15.55,22.95s28.05-15.61,28.05-15.61
	s-15.61,3.21-24.22,0.92c-8.62-2.29,0-7.34,0-7.34s15.5,0,21.47-4.59c5.97-4.59,0-9.18,0-9.18s-18.82,5.97-20.65,2.75
	s0-12.39,0-12.39s27.08,1.84,21.11-4.13c-5.97-5.97,0-7.26,0-7.26s4.87-2.25,9.69,1s14.59-5.76,14.59-5.76s0.75,3.17-2.25,6.47
	c-3,3.3,8.26-1.21,8.26-1.21s-3.25,16.77-11.02,20.53s13.77,8.51,13.77,8.51s-10.01,2.75-14.52,0c-4.51-2.75-0.75,1.22-0.75,1.22
	v54.35c0,0,15.73,18.65,30.42,0c14.69-18.65,6.43-40.79,6.43-40.79s-1.84-32.02,28.46-38.44c30.29-6.43,1.84-25.24,1.84-25.24"/>
<path class="st2" d="M257.9,377.56c5.8-6.37,10.79-24.96,10.79-24.96"/>
<path class="st2" d="M253.68,402.79c0,0-1.57-18.86,4.22-25.23"/>
<path class="st2" d="M250.88,382.9c-3.56,15.08,2.8,19.89,2.8,19.89"/>
<path class="st2" d="M242,402.94c0,0,3.54-18.58,8.88-20.04"/>
<path class="st2" d="M243.09,381.6c-3.08,13.67-1.09,21.34-1.09,21.34"/>
<path class="st2" d="M234.68,399.53c0,0-0.31-10.83,8.4-17.94"/>
<path class="st2" d="M234.68,399.53c0,0-3.35-14.24-0.87-26.21c0,0,10.98-23.61,4.88-36.92l-13.78-9.4
	c11.29,21-8.15,35.08-8.15,35.08"/>
<g>
	<g>
		<path class="st4" d="M242.36,407.32c3.66,0,7.17-3.22,7-7c-0.17-3.79-3.08-7-7-7c-3.66,0-7.17,3.22-7,7
			C235.53,404.11,238.44,407.32,242.36,407.32L242.36,407.32z"/>
	</g>
</g>
<g>
	<g>
		<path class="st4" d="M242.28,407.01c3.66,0,7.17-3.22,7-7c-0.17-3.79-3.08-7-7-7c-3.66,0-7.17,3.22-7,7
			C235.45,403.8,238.36,407.01,242.28,407.01L242.28,407.01z"/>
	</g>
</g>
<g>
	<g>
		<path class="st4" d="M234.71,404.26c3.66,0,7.17-3.22,7-7c-0.17-3.79-3.08-7-7-7c-3.66,0-7.17,3.22-7,7
			C227.88,401.05,230.79,404.26,234.71,404.26L234.71,404.26z"/>
	</g>
</g>
<g>
	<g>
		<path class="st4" d="M242.9,388.88c3.66,0,7.17-3.22,7-7c-0.17-3.79-3.08-7-7-7c-3.66,0-7.17,3.22-7,7
			C236.07,385.67,238.97,388.88,242.9,388.88L242.9,388.88z"/>
	</g>
</g>
<g>
	<g>
		<path class="st4" d="M251.54,389.8c3.66,0,7.17-3.22,7-7c-0.17-3.79-3.08-7-7-7c-3.66,0-7.17,3.22-7,7
			C244.71,386.59,247.62,389.8,251.54,389.8L251.54,389.8z"/>
	</g>
</g>
<g>
	<g>
		<path class="st4" d="M252.61,408.01c3.66,0,7.17-3.22,7-7c-0.17-3.79-3.08-7-7-7c-3.66,0-7.17,3.22-7,7
			C245.78,404.8,248.69,408.01,252.61,408.01L252.61,408.01z"/>
	</g>
</g>
<g>
	<g>
		<path class="st3" d="M213.27,241.53c-1.73-1.23-3.89-1.86-6-1.93c-2.1-0.07-4.01,0.76-6.05,1.05c0.31-0.04,0.62-0.08,0.93-0.13
			c-0.8,0.09-1.59,0.1-2.39,0c0.31,0.04,0.62,0.08,0.93,0.13c-1.64-0.23-3.16-0.92-4.79-1.21c-1.34-0.24-2.49-0.28-3.82-0.06
			c-0.8,0.13-1.57,0.37-2.37,0.48c0.31-0.04,0.62-0.08,0.93-0.13c-0.29,0.03-0.57,0.04-0.87,0.02c0.31,0.04,0.62,0.08,0.93,0.13
			c-0.17-0.02-0.33-0.08-0.49-0.11c0.54,0.25,0.69,0.3,0.45,0.17c-0.23-0.14-0.11-0.04,0.36,0.3c-0.04-0.04-0.08-0.08-0.13-0.11
			c-0.24-0.26-0.16-0.15,0.23,0.32c-0.32-0.48,0.25,0.83,0.13,0.26c0.04,0.31,0.08,0.62,0.13,0.93c-0.02-0.1-0.02-0.2-0.01-0.3
			c-0.04,0.31-0.08,0.62-0.13,0.93c0.07-0.34,0-0.21-0.21,0.39c0.41-0.86,0.61-1.75,0.35-2.7c-0.22-0.81-0.85-1.69-1.61-2.09
			c-1.56-0.83-3.94-0.51-4.79,1.26c-0.74,1.54-0.79,3.02-0.06,4.57c0.46,0.98,1.39,1.87,2.34,2.37c1.21,0.63,2.49,0.8,3.83,0.62
			c0.96-0.13,1.88-0.39,2.83-0.54c-0.31,0.04-0.62,0.08-0.93,0.13c0.52-0.06,1.01-0.06,1.53,0c-0.31-0.04-0.62-0.08-0.93-0.13
			c0.96,0.13,1.88,0.42,2.8,0.69c1.22,0.37,2.43,0.63,3.71,0.74c1.25,0.11,2.55-0.04,3.77-0.31c1.01-0.22,1.98-0.55,3-0.72
			c-0.31,0.04-0.62,0.08-0.93,0.13c0.67-0.09,1.34-0.09,2.01-0.01c-0.31-0.04-0.62-0.08-0.93-0.13c0.3,0.04,0.6,0.1,0.89,0.17
			c0.2,0.05,0.72,0.12,0.87,0.27c-0.06-0.06-0.72-0.34-0.28-0.12c0.12,0.06,0.24,0.12,0.36,0.18c0.3,0.16,0.58,0.34,0.85,0.54
			c0.7,0.5,1.9,0.57,2.7,0.35c0.81-0.22,1.69-0.85,2.09-1.61C215.47,244.52,214.86,242.66,213.27,241.53L213.27,241.53z"/>
	</g>
</g>
<g>
	<g>
		<path class="st3" d="M189.27,239.84c-0.93,0-1.76,0.25-2.57,0.69c-0.39,0.21-0.74,0.51-1.07,0.8c-0.32,0.28-0.59,0.69-0.83,1.01
			c-0.09,0.12-0.17,0.24-0.23,0.37c-0.16,0.33-0.31,0.68-0.43,1.02c-0.03,0.07-0.05,0.15-0.07,0.22c-0.21,0.91-0.23,1.79,0.01,2.7
			c0.11,0.46,0.32,0.85,0.63,1.19c0.25,0.38,0.57,0.68,0.98,0.9c0.4,0.26,0.84,0.39,1.3,0.42c0.47,0.1,0.93,0.08,1.4-0.06
			c0.28-0.12,0.56-0.24,0.84-0.35c0.53-0.31,0.94-0.73,1.26-1.26c0.12-0.28,0.24-0.56,0.35-0.84c0.17-0.62,0.17-1.24,0-1.86
			c-0.02-0.07-0.03-0.14-0.04-0.22c0.04,0.31,0.08,0.62,0.13,0.93c-0.02-0.15-0.02-0.29,0-0.43c-0.04,0.31-0.08,0.62-0.13,0.93
			c0.02-0.18,0.07-0.35,0.14-0.51c-0.12,0.28-0.24,0.56-0.35,0.84c0.07-0.16,0.16-0.32,0.27-0.46c-0.18,0.24-0.36,0.47-0.55,0.71
			c0.11-0.14,0.24-0.27,0.38-0.38c-0.24,0.18-0.47,0.36-0.71,0.55c0.13-0.1,0.28-0.18,0.43-0.25c-0.28,0.12-0.56,0.24-0.84,0.35
			c0.14-0.05,0.27-0.09,0.42-0.11c-0.31,0.04-0.62,0.08-0.93,0.13c0.07-0.01,0.15-0.01,0.22-0.01c0.48,0.02,0.93-0.08,1.35-0.3
			c0.43-0.14,0.81-0.38,1.13-0.72c0.34-0.32,0.58-0.69,0.72-1.13c0.22-0.42,0.32-0.87,0.3-1.35c-0.04-0.31-0.08-0.62-0.13-0.93
			c-0.17-0.59-0.47-1.11-0.9-1.54c-0.24-0.18-0.47-0.36-0.71-0.55C190.49,240,189.9,239.84,189.27,239.84L189.27,239.84z"/>
	</g>
</g>
<path class="st2" d="M173.83,302.71c0,0,25.96,0.19,20.65-18.49"/>
<path class="st2" d="M147.74,301.62c9.97-5.06,26.09,1.1,26.09,1.1"/>
<path class="st2" d="M132.19,316.69c0,0,5.59-10.02,15.56-15.08"/>
<path class="st2" d="M151.25,310.4c-13.23-1.91-19.06,6.29-19.06,6.29"/>
<path class="st2" d="M137.97,325.17c0,0,2.26-7.25,13.28-14.77"/>
<path class="st2" d="M158.73,317.73c-6.47-3.29-20.76,7.44-20.76,7.44"/>
<path class="st2" d="M150.36,334.61c0,0-3.96-8.73,8.37-16.88"/>
<path class="st2" d="M169.16,319.56c-9.74-0.07-18.8,15.05-18.8,15.05"/>
<path class="st2" d="M194.74,310.07c0,0-15.84,9.56-25.58,9.49"/>
<path class="st2" d="M206.94,279.53c11.32,15.14-12.49,30.87-12.49,30.87"/>
<path class="st2" d="M307.27,221.38c29.01-10.82-1.91-25.24-1.91-25.24"/>
<path class="st2" d="M285.64,257.73c0,0-7.39-25.52,21.63-36.34"/>
<path class="st2" d="M285.64,257.73c0,0,12.08,24.72-3.44,46.53c0,0-13.46,12.92-26.51,12.84c-13.05-0.08-2.21,7.71-2.21,7.71
	c16.72,5.01,14.67,29.71,14.67,29.71"/>
<g>
	<g>
		<path class="st3" d="M234.4,401.75c1.83,0,3.58-1.61,3.5-3.5c-0.08-1.9-1.54-3.5-3.5-3.5c-1.83,0-3.58,1.61-3.5,3.5
			C230.99,400.15,232.44,401.75,234.4,401.75L234.4,401.75z"/>
	</g>
</g>
<g>
	<g>
		<path class="st4" d="M216.66,368.84c3.66,0,7.17-3.22,7-7c-0.17-3.79-3.08-7-7-7c-3.66,0-7.17,3.22-7,7
			C209.83,365.63,212.73,368.84,216.66,368.84L216.66,368.84z"/>
	</g>
</g>
<g>
	<g>
		<path class="st4" d="M151.18,317.43c3.66,0,7.17-3.22,7-7c-0.17-3.79-3.08-7-7-7c-3.66,0-7.17,3.22-7,7
			C144.35,314.23,147.25,317.43,151.18,317.43L151.18,317.43z"/>
	</g>
</g>
<g>
	<g>
		<path class="st4" d="M138.32,331.82c3.66,0,7.17-3.22,7-7c-0.17-3.79-3.08-7-7-7c-3.66,0-7.17,3.22-7,7
			C131.49,328.61,134.4,331.82,138.32,331.82L138.32,331.82z"/>
	</g>
</g>
<g>
	<g>
		<path class="st4" d="M150.56,341.91c3.66,0,7.17-3.22,7-7c-0.17-3.79-3.08-7-7-7c-3.66,0-7.17,3.22-7,7
			C143.73,338.71,146.64,341.91,150.56,341.91L150.56,341.91z"/>
	</g>
</g>
<g>
	<g>
		<path class="st4" d="M132.82,323.55c3.66,0,7.17-3.22,7-7c-0.17-3.79-3.08-7-7-7c-3.66,0-7.17,3.22-7,7
			C125.99,320.35,128.89,323.55,132.82,323.55L132.82,323.55z"/>
	</g>
</g>
</svg>
