<?xml version="1.0" encoding="utf-8"?>
<!-- Generator: Adobe Illustrator 24.0.2, SVG Export Plug-In . SVG Version: 6.00 Build 0)  -->
<svg version="1.1" id="Layer_1" xmlns="http://www.w3.org/2000/svg" xmlns:xlink="http://www.w3.org/1999/xlink" x="0px" y="0px"
	 viewBox="0 0 792 612" style="enable-background:new 0 0 792 612;" xml:space="preserve">
<style type="text/css">
	.st0{fill:#4E467D;}
	.st1{fill:#00AEEF;}
	.st2{font-family:'PalatinoLinotype-Roman';}
	.st3{font-size:60px;}
	.st4{fill:none;}
	.st5{font-size:48px;}
	.st6{fill:none;stroke:#000000;stroke-miterlimit:10;}
	.st7{font-size:24px;}
	.st8{letter-spacing:4;}
</style>
<polygon class="st0" points="190.3,293.5 152.6,279.9 190.3,266.3 173.3,230.1 209.5,247.1 223.1,209.4 236.7,247.1 272.9,230.1 
	255.9,266.3 293.5,279.9 255.9,293.5 272.9,329.7 236.7,312.7 223.1,350.3 209.5,312.7 173.3,329.7 "/>
<polygon class="st0" points="237.7,265.2 300.9,247.6 243.8,279.9 300.9,312.1 237.7,294.5 255.3,357.7 223.1,300.6 190.8,357.7 
	208.4,294.5 145.3,312.1 202.4,279.9 145.3,247.6 208.4,265.2 190.8,202 223.1,259.2 255.3,202 "/>
<text transform="matrix(1 0 0 1 207.8007 296.5396)" class="st1 st2 st3">L</text>
<rect x="330" y="223.9" class="st4" width="214.6" height="47.9"/>
<text transform="matrix(1 0 0 1 329.9721 258.6343)" class="st2 st5">Luminary</text>
<line class="st6" x1="330" y1="279.5" x2="544.6" y2="280.2"/>
<rect x="327.2" y="290.6" class="st4" width="228.5" height="59.7"/>
<text transform="matrix(1 0 0 1 327.1947 307.9459)" class="st2 st7 st8">Web Solutions</text>
</svg>
